<?xml version="1.0" encoding="UTF-8"?>
<!DOCTYPE svg PUBLIC "-//W3C//DTD SVG 1.0//EN" "http://www.w3.org/TR/2001/REC-SVG-20010904/DTD/svg10.dtd">
<!-- Creator: CorelDRAW 2019 (64 Bit) -->
<svg xmlns="http://www.w3.org/2000/svg" xml:space="preserve" width="50px" height="50px" version="1.0" style="shape-rendering:geometricPrecision; text-rendering:geometricPrecision; image-rendering:optimizeQuality; fill-rule:evenodd; clip-rule:evenodd"
viewBox="0 0 50 50"
 xmlns:xlink="http://www.w3.org/1999/xlink"
 xmlns:xodm="http://www.corel.com/coreldraw/odm/2003">
 <defs>
  <style type="text/css">
   <![CDATA[
    .fil0 {fill:#146EBA;fill-rule:nonzero}
   ]]>
  </style>
 </defs>
 <g id="Camada_x0020_1">
  <metadata id="CorelCorpID_0Corel-Layer"/>
  <g id="_2496239452880">
   <path class="fil0" d="M10.59 20.62c-0.82,0 -0.82,0 -0.82,0 -0.89,0.08 -1.62,1.31 -1.62,2.74l0 1.1c0,1.43 0.73,2.5 1.61,2.38 0,0 0,0 0.83,0 7.91,0 14.35,6.44 14.35,14.35 0,0.83 0,0.83 0,0.83 -0.11,0.89 0.95,1.61 2.38,1.61l1.1 0c1.43,0 2.67,-0.73 2.75,-1.61 0,0 0,0 0,-0.83 0,-11.35 -9.23,-20.57 -20.58,-20.57z"/>
   <path class="fil0" d="M13.34 33.24c-2.86,0 -5.19,2.33 -5.19,5.2 0,2.86 2.33,5.19 5.19,5.19 2.87,0 5.2,-2.33 5.2,-5.19 0,-2.87 -2.33,-5.2 -5.2,-5.2z"/>
   <path class="fil0" d="M10.59 7.88c-0.14,0 -0.29,0 -0.43,0 -0.68,0.01 -0.68,0.01 -0.68,0.01 -0.73,0.05 -1.33,1.26 -1.33,2.68l0 1.06c0,1.43 0.62,2.55 1.38,2.5 0,0 0,0 0.7,-0.02 0.12,0 0.24,0 0.36,0 14.94,0 27.08,12.15 27.08,27.08 0,0.25 0,0.5 -0.01,0.75 -0.02,0.56 -0.02,0.56 -0.02,0.56 -0.04,0.62 1.09,1.13 2.51,1.13l1.06 0c1.43,0 2.63,-0.51 2.67,-1.13 0,0 0,0 0.01,-0.57 0.01,-0.25 0.02,-0.49 0.02,-0.74 0,-18.37 -14.94,-33.31 -33.32,-33.31z"/>
  </g>
 </g>
</svg>
