<?xml version="1.0" encoding="UTF-8"?>
<!DOCTYPE svg PUBLIC "-//W3C//DTD SVG 1.0//EN" "http://www.w3.org/TR/2001/REC-SVG-20010904/DTD/svg10.dtd">
<!-- Creator: CorelDRAW 2019 (64 Bit) -->
<svg xmlns="http://www.w3.org/2000/svg" xml:space="preserve" width="50px" height="50px" version="1.0" style="shape-rendering:geometricPrecision; text-rendering:geometricPrecision; image-rendering:optimizeQuality; fill-rule:evenodd; clip-rule:evenodd"
viewBox="0 0 50 50"
 xmlns:xlink="http://www.w3.org/1999/xlink"
 xmlns:xodm="http://www.corel.com/coreldraw/odm/2003">
 <defs>
  <style type="text/css">
   <![CDATA[
    .fil0 {fill:#146EBA;fill-rule:nonzero}
   ]]>
  </style>
 </defs>
 <g id="Camada_x0020_1">
  <metadata id="CorelCorpID_0Corel-Layer"/>
  <g id="_2494363935152">
   <path class="fil0" d="M40.24 22.57l0 9.16c0,1 -0.82,1.83 -1.83,1.83l-18.6 0c-1.01,0 -1.84,-0.83 -1.84,-1.83l0 -12.6c0,-1.01 0.83,-1.83 1.84,-1.83l18.6 0c1.01,0 1.83,0.82 1.83,1.83l0 3.44zm0.06 -7.55l-22.39 0c-1.21,0 -2.21,1 -2.21,2.21l0 22.4c0,1.21 1,2.21 2.21,2.21l22.39 0c1.22,0 2.21,-1 2.21,-2.21l0 -22.4c0,-1.21 -0.99,-2.21 -2.21,-2.21z"/>
   <path class="fil0" d="M14.79 34.49l0 -3.42 -0.49 0.11c-0.99,0.22 -1.97,-0.41 -2.18,-1.4l-0.78 -3.55 -0.12 -0.57 -0.89 -4.06 -0.16 -0.76 -0.74 -3.37c-0.21,-0.98 0.42,-1.97 1.4,-2.18l18.18 -3.96c0.98,-0.21 1.96,0.42 2.18,1.4l0.33 1.54 2.33 0 -0.85 -3.88c-0.25,-1.18 -1.44,-1.94 -2.62,-1.68l-21.88 4.77c-1.19,0.25 -1.95,1.44 -1.69,2.62l0.88 4.05 0.2 0.92 2.61 11.95 0.15 0.69 0.93 4.27c0.26,1.19 1.44,1.95 2.63,1.69l0.68 -0.15c-0.06,-0.21 -0.1,-0.42 -0.1,-0.65l0 -4.38z"/>
  </g>
 </g>
</svg>
