<?xml version="1.0" encoding="UTF-8"?>
<!DOCTYPE svg PUBLIC "-//W3C//DTD SVG 1.0//EN" "http://www.w3.org/TR/2001/REC-SVG-20010904/DTD/svg10.dtd">
<!-- Creator: CorelDRAW 2019 (64 Bit) -->
<svg xmlns="http://www.w3.org/2000/svg" xml:space="preserve" width="50px" height="50px" version="1.0" style="shape-rendering:geometricPrecision; text-rendering:geometricPrecision; image-rendering:optimizeQuality; fill-rule:evenodd; clip-rule:evenodd"
viewBox="0 0 50 50"
 xmlns:xlink="http://www.w3.org/1999/xlink"
 xmlns:xodm="http://www.corel.com/coreldraw/odm/2003">
 <defs>
  <style type="text/css">
   <![CDATA[
    .fil0 {fill:#146EBA;fill-rule:nonzero}
   ]]>
  </style>
 </defs>
 <g id="Camada_x0020_1">
  <metadata id="CorelCorpID_0Corel-Layer"/>
  <path class="fil0" d="M35.38 14.55l-19.39 0c-0.66,0 -1.19,-0.53 -1.19,-1.19 0,-0.66 0.53,-1.19 1.19,-1.19l19.39 0c0.65,0 1.18,0.53 1.18,1.19 0,0.66 -0.53,1.19 -1.18,1.19zm0 5.96l-19.39 0c-0.66,0 -1.19,-0.53 -1.19,-1.19 0,-0.66 0.53,-1.19 1.19,-1.19l19.39 0c0.65,0 1.18,0.53 1.18,1.19 0,0.66 -0.53,1.19 -1.18,1.19zm0 5.96l-19.39 0c-0.66,0 -1.19,-0.53 -1.19,-1.19 0,-0.66 0.53,-1.19 1.19,-1.19l19.39 0c0.65,0 1.18,0.53 1.18,1.19 0,0.66 -0.53,1.19 -1.18,1.19zm0 5.96l-19.39 0c-0.66,0 -1.19,-0.53 -1.19,-1.19 0,-0.66 0.53,-1.19 1.19,-1.19l19.39 0c0.65,0 1.18,0.53 1.18,1.19 0,0.66 -0.53,1.19 -1.18,1.19zm0 5.96l-19.39 0c-0.66,0 -1.19,-0.54 -1.19,-1.19 0,-0.66 0.53,-1.2 1.19,-1.2l19.39 0c0.65,0 1.18,0.54 1.18,1.2 0,0.65 -0.53,1.19 -1.18,1.19zm2.82 -30.99l-25.03 0c-0.96,0 -1.79,0.58 -2.17,1.41 -0.14,0.3 -0.21,0.63 -0.21,0.97l0 30.99c0,1.31 1.07,2.39 2.38,2.39l25.03 0c0.35,0 0.68,-0.08 0.97,-0.22 0.83,-0.38 1.41,-1.21 1.41,-2.17l0 -30.99c0,-1.31 -1.07,-2.38 -2.38,-2.38z"/>
 </g>
</svg>
