<?xml version="1.0" encoding="UTF-8"?>
<!DOCTYPE svg PUBLIC "-//W3C//DTD SVG 1.0//EN" "http://www.w3.org/TR/2001/REC-SVG-20010904/DTD/svg10.dtd">
<!-- Creator: CorelDRAW 2019 (64 Bit) -->
<svg xmlns="http://www.w3.org/2000/svg" xml:space="preserve" width="50px" height="50px" version="1.0" style="shape-rendering:geometricPrecision; text-rendering:geometricPrecision; image-rendering:optimizeQuality; fill-rule:evenodd; clip-rule:evenodd"
viewBox="0 0 50 50"
 xmlns:xlink="http://www.w3.org/1999/xlink"
 xmlns:xodm="http://www.corel.com/coreldraw/odm/2003">
 <defs>
  <style type="text/css">
   <![CDATA[
    .fil0 {fill:#146EBA;fill-rule:nonzero}
   ]]>
  </style>
 </defs>
 <g id="Camada_x0020_1">
  <metadata id="CorelCorpID_0Corel-Layer"/>
  <path class="fil0" d="M37.95 16.27c-2.88,-2.87 -6.62,-4.61 -10.58,-5.02l2.88 -2.88c1.07,-1.08 1.15,-2.55 0.17,-3.29 -0.97,-0.73 -2.66,-0.45 -3.73,0.63l-2.9 2.89c-1.07,1.08 -2.87,2.55 -3.98,3.29 -0.43,0.27 -0.68,0.61 -0.79,0.96 -0.18,0.59 0.08,1.24 0.79,1.69 1.11,0.74 2.91,2.21 3.98,3.29l2.9 2.89c0.84,0.85 2.05,1.2 3,0.96 0.27,-0.06 0.52,-0.17 0.73,-0.33 0.94,-0.7 0.91,-2.09 -0.04,-3.15 -0.04,-0.05 -0.08,-0.09 -0.13,-0.14l-2.6 -2.6c2.76,0.43 5.34,1.72 7.36,3.74 2.53,2.53 3.92,5.89 3.92,9.46 0,3.57 -1.39,6.93 -3.92,9.46 -0.23,0.23 -0.47,0.45 -0.71,0.66 -5.25,4.54 -13.22,4.32 -18.2,-0.66 -5.22,-5.22 -5.22,-13.7 0,-18.92l-2.94 -2.93c-0.46,0.47 -0.9,0.96 -1.3,1.46 -2.48,3.1 -3.82,6.91 -3.82,10.93 -0.01,4.68 1.81,9.08 5.12,12.39 3.31,3.31 7.72,5.13 12.4,5.13 4.34,0 8.46,-1.58 11.68,-4.46 0.24,-0.22 0.47,-0.44 0.71,-0.67 3.3,-3.31 5.12,-7.71 5.12,-12.39 0,-4.68 -1.82,-9.08 -5.12,-12.39z"/>
 </g>
</svg>
