<?xml version="1.0" encoding="UTF-8"?>
<!DOCTYPE svg PUBLIC "-//W3C//DTD SVG 1.0//EN" "http://www.w3.org/TR/2001/REC-SVG-20010904/DTD/svg10.dtd">
<!-- Creator: CorelDRAW 2019 (64 Bit) -->
<svg xmlns="http://www.w3.org/2000/svg" xml:space="preserve" width="50px" height="50px" version="1.0" style="shape-rendering:geometricPrecision; text-rendering:geometricPrecision; image-rendering:optimizeQuality; fill-rule:evenodd; clip-rule:evenodd"
viewBox="0 0 50 50"
 xmlns:xlink="http://www.w3.org/1999/xlink"
 xmlns:xodm="http://www.corel.com/coreldraw/odm/2003">
 <defs>
  <style type="text/css">
   <![CDATA[
    .fil0 {fill:#146EBA;fill-rule:nonzero}
   ]]>
  </style>
 </defs>
 <g id="Camada_x0020_1">
  <metadata id="CorelCorpID_0Corel-Layer"/>
  <g id="_2496239463760">
   <path class="fil0" d="M18.89 37.92c0.09,0.24 0.31,0.41 0.56,0.41 7.11,0 14.46,0 21.75,0.01l0 0c0.33,0 0.6,-0.26 0.6,-0.59 0,-0.33 -0.27,-0.59 -0.59,-0.59 -7.15,-0.02 -14.35,-0.02 -21.33,-0.02 -0.83,-2.51 -1.56,-4.96 -2.34,-7.54 -0.41,-1.36 -0.83,-2.76 -1.27,-4.17 -0.35,-1.27 -0.71,-2.44 -1.2,-3.91 -0.96,-3.19 -2.9,-9.44 -2.92,-9.5 -0.07,-0.25 -0.31,-0.42 -0.56,-0.42l-1.16 0c-0.1,-0.61 -0.65,-1.07 -1.32,-1.07l-6.4 0c-0.74,0 -1.34,0.56 -1.34,1.27l0 0.79c0,0.7 0.6,1.28 1.34,1.28l6.4 0c0.67,0 1.23,-0.47 1.33,-1.09l0.71 0c0.45,1.46 1.97,6.38 2.79,9.09 0,0.01 0.01,0.01 0.01,0.02 0.48,1.46 0.84,2.61 1.18,3.86 0.01,0.01 0.01,0.01 0.01,0.02 0.44,1.4 0.86,2.81 1.27,4.17 0.78,2.61 1.59,5.31 2.48,7.98z"/>
   <path class="fil0" d="M46.6 17.14l-30.02 0c-0.74,0 -1.34,0.57 -1.34,1.28l0 0.79c0,0.7 0.6,1.27 1.34,1.27l0.42 0 4.51 15.32c0.08,0.25 0.31,0.43 0.57,0.43l19.02 0c0.26,0 0.49,-0.18 0.56,-0.43l4.51 -15.32 0.43 0c0.73,0 1.34,-0.57 1.34,-1.27l0 -0.79c0,-0.71 -0.61,-1.28 -1.34,-1.28z"/>
   <path class="fil0" d="M19.44 38.57c-1.69,0 -3.08,1.38 -3.08,3.08 0,1.7 1.39,3.08 3.08,3.08 1.71,0 3.08,-1.38 3.08,-3.08 0,-1.7 -1.37,-3.08 -3.08,-3.08z"/>
   <path class="fil0" d="M41.53 38.57c-1.7,0 -3.08,1.38 -3.08,3.08 0,1.7 1.38,3.08 3.08,3.08 1.7,0 3.08,-1.38 3.08,-3.08 0,-1.7 -1.38,-3.08 -3.08,-3.08z"/>
  </g>
 </g>
</svg>
