<?xml version="1.0" encoding="UTF-8"?>
<!DOCTYPE svg PUBLIC "-//W3C//DTD SVG 1.0//EN" "http://www.w3.org/TR/2001/REC-SVG-20010904/DTD/svg10.dtd">
<!-- Creator: CorelDRAW 2019 (64 Bit) -->
<svg xmlns="http://www.w3.org/2000/svg" xml:space="preserve" width="300px" height="300px" version="1.0" style="shape-rendering:geometricPrecision; text-rendering:geometricPrecision; image-rendering:optimizeQuality; fill-rule:evenodd; clip-rule:evenodd"
viewBox="0 0 300 300"
 xmlns:xlink="http://www.w3.org/1999/xlink"
 xmlns:xodm="http://www.corel.com/coreldraw/odm/2003">
 <defs>
  <style type="text/css">
   <![CDATA[
    .fil0 {fill:#E4F2FF}
    .fil1 {fill:#146EBA;fill-rule:nonzero}
   ]]>
  </style>
 </defs>
 <g id="Camada_x0020_1">
  <metadata id="CorelCorpID_0Corel-Layer"/>
  <g id="_2496239778896">
   <g>
    <circle class="fil0" cx="115.02" cy="91.62" r="45.42"/>
    <circle class="fil0" cx="219.48" cy="115.89" r="35.77"/>
    <circle class="fil0" cx="135.27" cy="206.12" r="57.72"/>
   </g>
   <path class="fil1" d="M229.05 196.06l-15.27 0c-1.3,0 -2.35,-1.04 -2.35,-2.34 0,-1.29 1.05,-2.35 2.35,-2.35l15.27 0c4.34,0 7.86,-3.53 7.86,-7.87l0 -107.28c0,-4.34 -3.52,-7.87 -7.86,-7.87l-153.91 0c-4.34,0 -7.87,3.53 -7.87,7.87l0 107.28c0,4.34 3.53,7.87 7.87,7.87l15.22 0c1.29,0 2.33,1.06 2.33,2.35 0,1.3 -1.04,2.34 -2.33,2.34l-15.22 0c-6.92,0 -12.56,-5.63 -12.56,-12.56l0 -107.28c0,-6.93 5.64,-12.57 12.56,-12.57l153.91 0c6.93,0 12.56,5.64 12.56,12.57l0 107.28c0,6.93 -5.63,12.56 -12.56,12.56z"/>
   <path class="fil1" d="M218.23 183.3l-4.45 0c-1.3,0 -2.35,-1.06 -2.35,-2.35 0,-1.29 1.05,-2.34 2.35,-2.34l4.45 0c1.38,0 2.51,-1.25 2.51,-2.77l0 -91.96c0,-1.52 -1.13,-2.76 -2.51,-2.76l-132.27 0c-1.39,0 -2.5,1.24 -2.5,2.76l0 91.96c0,1.52 1.11,2.77 2.5,2.77l4.4 0c1.29,0 2.33,1.05 2.33,2.34 0,1.29 -1.04,2.35 -2.33,2.35l-4.4 0c-3.97,0 -7.2,-3.36 -7.2,-7.46l0 -91.96c0,-4.11 3.23,-7.45 7.2,-7.45l132.27 0c3.97,0 7.2,3.34 7.2,7.45l0 91.96c0,4.1 -3.23,7.46 -7.2,7.46z"/>
   <path class="fil1" d="M73.23 146.68c-1.3,0 -2.35,-1.05 -2.35,-2.35l0 -28.94c0,-1.3 1.05,-2.35 2.35,-2.35 1.3,0 2.34,1.05 2.34,2.35l0 28.94c0,1.3 -1.04,2.35 -2.34,2.35z"/>
   <path class="fil1" d="M98.07 171.92c-1.3,0 -2.34,-1.05 -2.34,-2.35l0 -12.41c0,-13.52 11,-24.52 24.52,-24.52 5.56,0 10.8,1.81 15.15,5.24 1.03,0.8 1.2,2.28 0.4,3.3 -0.8,1.01 -2.27,1.19 -3.29,0.38 -3.53,-2.77 -7.76,-4.23 -12.26,-4.23 -10.93,0 -19.83,8.9 -19.83,19.83l0 12.41c0,1.3 -1.05,2.35 -2.35,2.35z"/>
   <path class="fil1" d="M120.25 108.4c-4.53,0 -8.2,3.69 -8.2,8.21 0,4.53 3.67,8.21 8.2,8.21 4.53,0 8.22,-3.68 8.22,-8.21 0,-4.52 -3.69,-8.21 -8.22,-8.21zm0 21.11c-7.12,0 -12.89,-5.79 -12.89,-12.9 0,-7.11 5.77,-12.9 12.89,-12.9 7.11,0 12.9,5.79 12.9,12.9 0,7.11 -5.79,12.9 -12.9,12.9z"/>
   <path class="fil1" d="M109.7 159.91c-1.3,0 -2.34,-1.05 -2.34,-2.35l0 -3.82c0,-1.29 1.04,-2.34 2.34,-2.34 1.3,0 2.35,1.05 2.35,2.34l0 3.82c0,1.3 -1.05,2.35 -2.35,2.35z"/>
   <path class="fil1" d="M205.75 171.92c-1.28,0 -2.34,-1.05 -2.34,-2.35l0 -12.41c0,-10.93 -8.9,-19.83 -19.83,-19.83 -4.5,0 -8.73,1.46 -12.25,4.23 -1.02,0.8 -2.49,0.63 -3.3,-0.39 -0.8,-1.02 -0.63,-2.49 0.4,-3.29 4.36,-3.43 9.6,-5.24 15.15,-5.24 13.53,0 24.53,11 24.53,24.52l0 12.41c0,1.3 -1.06,2.35 -2.36,2.35z"/>
   <path class="fil1" d="M183.58 108.4c-4.53,0 -8.21,3.69 -8.21,8.21 0,4.53 3.68,8.21 8.21,8.21 4.52,0 8.21,-3.68 8.21,-8.21 0,-4.52 -3.69,-8.21 -8.21,-8.21zm0 21.11c-7.12,0 -12.91,-5.79 -12.91,-12.9 0,-7.11 5.79,-12.9 12.91,-12.9 7.11,0 12.9,5.79 12.9,12.9 0,7.11 -5.79,12.9 -12.9,12.9z"/>
   <path class="fil1" d="M194.13 159.91c-1.29,0 -2.34,-1.05 -2.34,-2.35l0 -3.82c0,-1.29 1.05,-2.34 2.34,-2.34 1.3,0 2.35,1.05 2.35,2.34l0 3.82c0,1.3 -1.05,2.35 -2.35,2.35z"/>
   <path class="fil1" d="M135.35 131.39c-0.57,0 -1.12,-0.2 -1.57,-0.59 -0.97,-0.87 -1.05,-2.34 -0.19,-3.32 4.58,-5.14 11.08,-7.96 18.33,-7.96 6.54,0 13.03,2.88 17.81,7.91 0.88,0.94 0.83,2.43 -0.1,3.32 -0.94,0.89 -2.42,0.85 -3.32,-0.09 -3.88,-4.1 -9.12,-6.45 -14.39,-6.45 -5.89,0 -11.16,2.27 -14.83,6.39 -0.46,0.52 -1.1,0.79 -1.74,0.79z"/>
   <path class="fil1" d="M151.92 95.28c-4.53,0 -8.21,3.69 -8.21,8.21 0,4.53 3.68,8.21 8.21,8.21 4.51,0 8.2,-3.68 8.2,-8.21 0,-4.52 -3.69,-8.21 -8.2,-8.21zm0 21.11c-7.12,0 -12.9,-5.79 -12.9,-12.9 0,-7.11 5.78,-12.9 12.9,-12.9 7.11,0 12.9,5.79 12.9,12.9 0,7.11 -5.79,12.9 -12.9,12.9z"/>
   <path class="fil1" d="M151.92 149.43c-25.86,0 -46.89,21.04 -46.89,46.89 0,25.86 21.03,46.89 46.89,46.89 25.86,0 46.89,-21.03 46.89,-46.89 0,-25.85 -21.03,-46.89 -46.89,-46.89zm0 98.47c-28.44,0 -51.59,-23.14 -51.59,-51.58 0,-28.44 23.15,-51.58 51.59,-51.58 28.44,0 51.58,23.14 51.58,51.58 0,28.44 -23.14,51.58 -51.58,51.58z"/>
   <path class="fil1" d="M151.92 149.43c-13.03,0 -24.04,21.47 -24.04,46.89 0,25.42 11.01,46.89 24.04,46.89 13.03,0 24.03,-21.47 24.03,-46.89 0,-25.42 -11,-46.89 -24.03,-46.89zm0 98.47c-16.12,0 -28.73,-22.66 -28.73,-51.58 0,-28.92 12.61,-51.58 28.73,-51.58 16.11,0 28.73,22.66 28.73,51.58 0,28.92 -12.62,51.58 -28.73,51.58z"/>
   <path class="fil1" d="M151.92 172.28c-25.42,0 -46.89,11.01 -46.89,24.04 0,13.03 21.47,24.04 46.89,24.04 25.42,0 46.89,-11.01 46.89,-24.04 0,-13.03 -21.47,-24.04 -46.89,-24.04zm0 52.77c-28.93,0 -51.59,-12.62 -51.59,-28.73 0,-16.1 22.66,-28.73 51.59,-28.73 28.92,0 51.58,12.63 51.58,28.73 0,16.11 -22.66,28.73 -51.58,28.73z"/>
   <path class="fil1" d="M151.92 247.9c-1.3,0 -2.36,-1.05 -2.36,-2.34l0 -98.47c0,-1.3 1.06,-2.35 2.36,-2.35 1.28,0 2.34,1.05 2.34,2.35l0 98.47c0,1.29 -1.06,2.34 -2.34,2.34z"/>
   <path class="fil1" d="M201.15 198.66l-98.48 0c-1.28,0 -2.34,-1.04 -2.34,-2.34 0,-1.29 1.06,-2.35 2.34,-2.35l98.48 0c1.3,0 2.35,1.06 2.35,2.35 0,1.3 -1.05,2.34 -2.35,2.34z"/>
   <path class="fil1" d="M211.71 247.9l-119.22 0c-1.3,0 -2.36,-1.05 -2.36,-2.34 0,-1.29 1.06,-2.35 2.36,-2.35l119.22 0c1.29,0 2.34,1.06 2.34,2.35 0,1.29 -1.05,2.34 -2.34,2.34z"/>
  </g>
 </g>
</svg>
