<?xml version="1.0" encoding="UTF-8"?>
<!DOCTYPE svg PUBLIC "-//W3C//DTD SVG 1.0//EN" "http://www.w3.org/TR/2001/REC-SVG-20010904/DTD/svg10.dtd">
<!-- Creator: CorelDRAW 2019 (64 Bit) -->
<svg xmlns="http://www.w3.org/2000/svg" xml:space="preserve" width="12.6998mm" height="12.6998mm" version="1.0" style="shape-rendering:geometricPrecision; text-rendering:geometricPrecision; image-rendering:optimizeQuality; fill-rule:evenodd; clip-rule:evenodd"
viewBox="0 0 1269.98 1269.98"
 xmlns:xlink="http://www.w3.org/1999/xlink"
 xmlns:xodm="http://www.corel.com/coreldraw/odm/2003">
 <defs>
  <style type="text/css">
   <![CDATA[
    .fil0 {fill:#E4F2FF}
    .fil1 {fill:#146EBA;fill-rule:nonzero}
   ]]>
  </style>
 </defs>
 <g id="Camada_x0020_1">
  <metadata id="CorelCorpID_0Corel-Layer"/>
  <g id="_2015825232672">
   <circle class="fil0" cx="437.81" cy="314.2" r="231.07"/>
   <circle class="fil0" cx="969.23" cy="437.66" r="181.96"/>
   <circle class="fil0" cx="540.82" cy="896.68" r="293.64"/>
  </g>
  <g id="_2015825231008">
   <path class="fil1" d="M1013.35 526.21c-24.58,83.51 -72,150.46 -141.11,199.34l0 -377.59c32.79,17.81 99.16,51.25 157.84,63.97 0.12,18.88 -1.55,62.67 -16.73,114.28zm-311.67 0.58c-14.79,-51.91 -15.58,-96.02 -15.03,-114.81 59.29,-12.81 126.59,-46.78 159.13,-64.5l0 379.1c-71.68,-48.53 -120.12,-115.64 -144.1,-199.79zm354.53 -126.82c-0.48,-6.02 -4.97,-10.95 -10.92,-12.02 -77.11,-13.49 -178.92,-73.68 -179.94,-74.28 -4.17,-2.5 -9.33,-2.5 -13.49,0 -1.03,0.6 -102.96,60.76 -180.18,74.28 -5.82,1.02 -10.31,5.84 -10.89,11.76 -0.23,2.4 -5.59,59.8 15.17,133.27 19.16,67.93 65.24,162.81 175.85,228.86 2.09,1.23 4.45,1.88 6.77,1.88 2.45,0 4.86,-0.7 6.97,-2 107.65,-66.62 153.76,-161.34 173.5,-229.06 21.31,-73.24 17.33,-130.27 17.16,-132.69z"/>
   <path class="fil1" d="M980.82 701.87c-7.34,0 -13.24,5.91 -13.24,13.2l0 225.85c0,13.62 -11.11,24.7 -24.72,24.7l-672.11 0c-13.6,0 -24.69,-11.08 -24.69,-24.7l0 -451.65c0,-13.62 11.09,-24.71 24.69,-24.71l355.05 0c7.31,0 13.26,-5.9 13.26,-13.24 0,-7.31 -5.95,-13.21 -13.26,-13.21l-355.05 0c-28.2,0 -51.16,22.95 -51.16,51.16l0 451.65c0,28.21 22.96,51.16 51.16,51.16l672.11 0c28.22,0 51.17,-22.95 51.17,-51.16l0 -225.85c0,-7.29 -5.91,-13.2 -13.21,-13.2z"/>
   <path class="fil1" d="M372.78 561.44c20.22,0 36.65,16.43 36.65,36.66 0,20.22 -16.43,36.65 -36.65,36.65 -20.23,0 -36.66,-16.43 -36.66,-36.65 0,-20.23 16.43,-36.66 36.66,-36.66zm99.8 0c20.18,0 36.66,16.43 36.66,36.66 0,20.22 -16.48,36.65 -36.66,36.65 -20.23,0 -36.68,-16.43 -36.68,-36.65 0,-20.23 16.45,-36.66 36.68,-36.66zm-99.8 99.78c20.29,0 38.32,-9.67 49.91,-24.59 11.52,14.92 29.6,24.59 49.89,24.59 34.79,0 63.12,-28.3 63.12,-63.12 0,-34.83 -28.33,-63.17 -63.12,-63.17 -20.29,0 -38.37,9.71 -49.89,24.64 -11.59,-14.93 -29.62,-24.64 -49.91,-24.64 -34.82,0 -63.12,28.34 -63.12,63.17 0,34.82 28.3,63.12 63.12,63.12z"/>
   <path class="fil1" d="M591.68 785.49l-268.2 0c-7.33,0 -13.25,5.95 -13.25,13.25 0,7.3 5.92,13.21 13.25,13.21l268.2 0c7.29,0 13.26,-5.91 13.26,-13.21 0,-7.3 -5.97,-13.25 -13.26,-13.25z"/>
   <path class="fil1" d="M591.68 870.22l-268.2 0c-7.33,0 -13.25,5.91 -13.25,13.21 0,7.29 5.92,13.25 13.25,13.25l268.2 0c7.29,0 13.26,-5.96 13.26,-13.25 0,-7.3 -5.97,-13.21 -13.26,-13.21z"/>
   <path class="fil1" d="M649.9 896.68l248.81 0c7.33,0 13.24,-5.96 13.24,-13.25 0,-7.3 -5.91,-13.21 -13.24,-13.21l-248.81 0c-7.29,0 -13.21,5.91 -13.21,13.21 0,7.29 5.92,13.25 13.21,13.25z"/>
  </g>
 </g>
</svg>
