<?xml version="1.0" encoding="UTF-8"?>
<!DOCTYPE svg PUBLIC "-//W3C//DTD SVG 1.0//EN" "http://www.w3.org/TR/2001/REC-SVG-20010904/DTD/svg10.dtd">
<!-- Creator: CorelDRAW 2019 (64 Bit) -->
<svg xmlns="http://www.w3.org/2000/svg" xml:space="preserve" width="12.6998mm" height="12.6998mm" version="1.0" style="shape-rendering:geometricPrecision; text-rendering:geometricPrecision; image-rendering:optimizeQuality; fill-rule:evenodd; clip-rule:evenodd"
viewBox="0 0 1269.98 1269.98"
 xmlns:xlink="http://www.w3.org/1999/xlink"
 xmlns:xodm="http://www.corel.com/coreldraw/odm/2003">
 <defs>
  <style type="text/css">
   <![CDATA[
    .fil1 {fill:#146EBA}
    .fil0 {fill:#E4F2FF}
   ]]>
  </style>
 </defs>
 <g id="Camada_x0020_1">
  <metadata id="CorelCorpID_0Corel-Layer"/>
  <g id="_2014393067552">
   <circle class="fil0" cx="464.93" cy="312.34" r="231.07"/>
   <circle class="fil0" cx="996.35" cy="435.8" r="181.96"/>
   <circle class="fil0" cx="567.94" cy="894.82" r="293.64"/>
  </g>
  <path class="fil1" d="M1013.37 965.7c-11.91,0 -21.62,-9.69 -21.62,-21.61 0,-11.88 9.71,-21.57 21.62,-21.57 11.86,0 21.55,9.69 21.55,21.57 0,11.92 -9.69,21.61 -21.55,21.61zm-365.55 100.51c-11.91,0 -21.6,-9.7 -21.6,-21.6 0,-11.91 9.69,-21.57 21.6,-21.57 11.92,0 21.57,9.66 21.57,21.57 0,11.9 -9.65,21.6 -21.57,21.6zm-310.46 -134.99l85.05 -52.26c41.2,39.21 91.77,67.03 146.8,80.6 1.1,0.27 2.19,0.39 3.22,0.39 6.05,0 11.52,-4.09 13.05,-10.22 1.78,-7.2 -2.65,-14.48 -9.83,-16.25 -48.17,-11.92 -92.61,-35.69 -129.41,-69.08l59.76 -36.74c14.05,39.14 32.49,72.25 53.79,96.21 2.65,2.99 6.35,4.52 10.04,4.52 3.17,0 6.39,-1.14 8.95,-3.4 5.53,-4.9 6.04,-13.42 1.1,-18.95 -19.97,-22.48 -37.3,-54.55 -50.39,-92.82l15.68 -9.6c8.23,7.52 19.04,12.21 30.96,12.61l47.26 186.59c-6.83,4 -12.57,9.6 -16.73,16.34l-267.56 -73.24c0,-0.62 0.09,-1.22 0.09,-1.83 0,-4.44 -0.66,-8.78 -1.83,-12.87zm-46.64 34.48c-11.91,0 -21.6,-9.69 -21.6,-21.61 0,-11.88 9.69,-21.57 21.6,-21.57 11.91,0 21.61,9.69 21.61,21.57 0,11.92 -9.7,21.61 -21.61,21.61zm-21.6 -603.84c0,-11.91 9.69,-21.6 21.6,-21.6 11.91,0 21.61,9.69 21.61,21.6 0,11.91 -9.7,21.57 -21.61,21.57 -11.91,0 -21.6,-9.66 -21.6,-21.57zm338.48 -87.98c8.75,12.91 23.49,21.42 40.22,21.42 16.82,0 31.65,-8.66 40.35,-21.69l276.77 87.08 -0.06 1.17c0,5.87 1.1,11.52 3.04,16.73l-70.68 52.14c-60.08,-70.77 -149.56,-115.83 -249.42,-115.83 -63,0 -124.11,17.92 -176.85,51.88 -6.22,4.04 -8.06,12.34 -4,18.55 4,6.28 12.3,8.06 18.56,4.06 25.22,-16.26 52.56,-28.47 81.12,-36.47 -12.21,12.34 -23.68,27.43 -34.09,45.28 -3.68,6.44 -1.51,14.66 4.88,18.36 6.43,3.73 14.65,1.56 18.38,-4.82 22.66,-39.02 50.13,-62.83 78.58,-68.57l0 92.04c0,7.39 5.99,13.44 13.42,13.44 7.4,0 13.45,-6.05 13.45,-13.44l0 -92.18c39.93,7.63 76.06,48.83 100.64,115.77 1.99,5.44 7.13,8.84 12.61,8.84 1.56,0 3.07,-0.27 4.64,-0.83 6.95,-2.57 10.52,-10.3 7.96,-17.25 -14.95,-40.79 -34.35,-73.32 -56.74,-96.13 57.17,16.4 107.38,49.29 145.17,93.25l-60.96 44.91c-8.17,-6.31 -18.35,-10.08 -29.42,-10.08 -16.43,0 -30.96,8.25 -39.74,20.79l-406.36 -138.18c0.03,-0.78 0.12,-1.51 0.12,-2.26 0,-0.52 -0.09,-1 -0.09,-1.48l268.5 -86.5zm40.22 -48.65c11.92,0 21.57,9.69 21.57,21.6 0,11.92 -9.65,21.61 -21.57,21.61 -11.91,0 -21.6,-9.69 -21.6,-21.61 0,-11.91 9.69,-21.6 21.6,-21.6zm365.55 115.03c11.86,0 21.55,9.69 21.55,21.6 0,11.91 -9.69,21.57 -21.55,21.57 -11.91,0 -21.62,-9.66 -21.62,-21.57 0,-11.91 9.71,-21.6 21.62,-21.6zm-387.15 427.58c0,-9.65 -2.86,-18.65 -7.79,-26.22l146.31 -167.77c6.2,2.92 13.12,4.6 20.43,4.6 3.64,0 7.25,-0.42 10.68,-1.21l28.27 51.3 -81.91 0c-7.4,0 -13.45,6.05 -13.45,13.43 0,7.45 6.05,13.44 13.45,13.44l50.21 0c-1.12,51.51 -8.61,100.64 -21.64,143.82 -34.62,-7.26 -71.66,-11.47 -109.51,-12.31l0 -35.83c0,-7.43 -6.05,-13.42 -13.45,-13.42 -7.43,0 -13.42,5.99 -13.42,13.42l0 185.69 -32.22 -127.17c14.35,-8.43 24.04,-23.95 24.04,-41.77zm-70.08 0c0,-11.91 9.69,-21.62 21.61,-21.62 11.91,0 21.6,9.71 21.6,21.62 0,11.92 -9.69,21.61 -21.6,21.61 -11.92,0 -21.61,-9.69 -21.61,-21.61zm-180.69 -307.12l-47.21 -68.24c0.78,-0.96 1.48,-1.92 2.17,-2.93l80.17 27.27c-13.14,13.78 -24.78,28.29 -35.13,43.9zm131.78 -7.64c-25.43,-6.62 -49.01,-15.05 -69.92,-25.14 0.53,-0.47 1.05,-1 1.62,-1.52l69.38 23.62c-0.39,0.99 -0.75,2.02 -1.08,3.04zm26.33 6.08l0.18 -0.48 3.91 1.35c-1.39,-0.3 -2.69,-0.6 -4.09,-0.87zm-115.37 -10.65c23.83,12.18 51.04,22.3 80.61,30.08 -11.76,39.43 -19.13,83.52 -21.66,129.04l-85.08 -122.96c7.78,-12.78 16.43,-24.76 26.13,-36.16zm179.99 275.47c-6.23,-2.92 -13.14,-4.61 -20.43,-4.61 -7.22,0 -14.01,1.64 -20.19,4.46l-54.46 -78.73c0,-1.03 -0.05,-2.08 -0.05,-3.13 0,-55.6 7.7,-110.07 21.9,-157.21 34.57,7.26 71.57,11.49 109.45,12.27l0 131.51 -93.96 0c-7.43,0 -13.44,6.05 -13.44,13.43 0,7.45 6.01,13.44 13.44,13.44l93.96 0 0 27.05 -36.22 41.52zm146.29 -167.79l-63.08 72.35 -20.12 0 0 -126.51 75.55 25.69c-0.05,0.79 -0.13,1.51 -0.13,2.26 0,9.66 2.87,18.65 7.78,26.21zm62.3 -26.21c0,11.92 -9.69,21.61 -21.6,21.61 -11.92,0 -21.61,-9.69 -21.61,-21.61 0,-11.91 9.69,-21.6 21.61,-21.6 11.91,0 21.6,9.69 21.6,21.6zm70.43 305.38c-23.74,-12.13 -50.87,-22.17 -80.3,-29.96 13.57,-45.29 21.25,-96.52 22.35,-149.99l19.69 0 72.08 130.82c-9.65,17.51 -21,33.94 -33.82,49.13zm-105.57 34.48c6.19,-12.22 11.76,-25.27 16.79,-38.96 25.36,6.59 48.86,15.04 69.74,25.03 -35.53,34.91 -79.64,61.05 -128.92,74.95 15.62,-15.77 29.88,-36.2 42.39,-61.02zm-110.36 71.03l0 -127.08c34.87,0.78 68.93,4.57 100.76,10.99 -4.34,11.57 -9.12,22.58 -14.35,32.93 -24.13,47.85 -54.43,76.76 -86.41,83.16zm286.4 -312.33l-53.86 0c-7.43,0 -13.44,6.05 -13.44,13.43 0,7.45 6.01,13.44 13.44,13.44l53.86 0c-1.57,35.65 -9.39,69.69 -22.39,101.03l-105.9 -192.16c8.78,-8.78 14.26,-20.91 14.26,-34.3 0,-5.9 -1.14,-11.52 -3.1,-16.78l61.56 -45.35c32.7,45.74 52.92,100.95 55.57,160.69zm36.22 -228.29c4.75,3.61 10.14,6.44 16.04,8.12l0 483.5 -58.48 -106.03c21.41,-43.44 33.44,-92.25 33.44,-143.87 0,-70.82 -22.7,-136.42 -61.13,-190.03l70.13 -51.69zm-660.61 508.1c-5.39,-4.96 -11.91,-8.69 -19.13,-10.79l0 -489.19c0.65,-0.21 1.35,-0.39 2,-0.63l152.82 220.8 -111.08 0c1.35,-30.74 7.34,-60.83 17.87,-89.6 2.52,-7 -1.05,-14.7 -8,-17.26 -6.99,-2.53 -14.69,1.05 -17.27,8.04 -13.12,35.91 -19.77,73.7 -19.77,112.25 0,68.74 21.09,134.57 60.99,190.26 2.61,3.64 6.74,5.6 10.92,5.6 2.73,0 5.47,-0.82 7.82,-2.52 6.04,-4.31 7.43,-12.7 3.08,-18.75 -34,-47.47 -53.08,-102.93 -55.59,-161.15l128.36 0c0.75,35.69 4.45,70.56 11.01,103.74 1.26,6.38 6.88,10.81 13.18,10.81 0.87,0 1.74,-0.07 2.61,-0.25 7.29,-1.44 11.98,-8.54 10.56,-15.79 -3.75,-18.87 -6.43,-38.34 -8.21,-58.22l31.68 45.79c-4.96,7.61 -7.86,16.64 -7.86,26.35 0,4.47 0.7,8.77 1.82,12.91l-207.81 127.6zm326.14 87.86l-6.81 -26.83c1.6,-0.16 3.22,-0.29 5.21,-0.29 95.56,0 181.64,-41.21 241.51,-106.77 0.69,-0.66 1.3,-1.36 1.92,-2.19 12.94,-14.39 24.61,-30 34.87,-46.52l52.99 96.22c-8.66,8.66 -14.05,20.52 -14.17,33.64l-275.86 75.87c-8.25,-13.44 -22.87,-22.56 -39.66,-23.13zm377.38 -98.65l0 -489.19c20.16,-5.86 34.99,-24.46 34.99,-46.51 0,-26.73 -21.73,-48.47 -48.42,-48.47 -16.84,0 -31.7,8.6 -40.4,21.69l-276.76 -87.07 0.05 -1.18c0,-26.74 -21.75,-48.47 -48.44,-48.47 -26.74,0 -48.47,21.73 -48.47,48.47 0,0.46 0.04,1 0.09,1.48l-268.55 86.47c-8.7,-12.88 -23.47,-21.39 -40.17,-21.39 -26.74,0 -48.47,21.74 -48.47,48.47 0,22.05 14.81,40.65 35.03,46.51l0 489.19c-20.22,5.87 -35.03,24.48 -35.03,46.53 0,26.73 21.73,48.47 48.47,48.47 16.55,0 31.21,-8.39 39.96,-21.12l268.67 73.6c0.25,26.53 21.87,48.04 48.47,48.04 26.48,0 48.08,-21.39 48.44,-47.87l275.81 -75.83c8.57,13.88 23.82,23.18 41.3,23.18 26.69,0 48.42,-21.74 48.42,-48.47 0,-22.05 -14.83,-40.66 -34.99,-46.53z"/>
 </g>
</svg>
