<?xml version="1.0" encoding="UTF-8"?>
<!DOCTYPE svg PUBLIC "-//W3C//DTD SVG 1.0//EN" "http://www.w3.org/TR/2001/REC-SVG-20010904/DTD/svg10.dtd">
<!-- Creator: CorelDRAW 2019 (64 Bit) -->
<svg xmlns="http://www.w3.org/2000/svg" xml:space="preserve" width="12.6998mm" height="12.6998mm" version="1.0" style="shape-rendering:geometricPrecision; text-rendering:geometricPrecision; image-rendering:optimizeQuality; fill-rule:evenodd; clip-rule:evenodd"
viewBox="0 0 1269.98 1269.98"
 xmlns:xlink="http://www.w3.org/1999/xlink"
 xmlns:xodm="http://www.corel.com/coreldraw/odm/2003">
 <defs>
  <style type="text/css">
   <![CDATA[
    .fil0 {fill:#E4F2FF}
    .fil1 {fill:#146EBA;fill-rule:nonzero}
   ]]>
  </style>
 </defs>
 <g id="Camada_x0020_1">
  <metadata id="CorelCorpID_0Corel-Layer"/>
  <g id="_2015833640048">
   <circle class="fil0" cx="421.57" cy="331.72" r="231.07"/>
   <circle class="fil0" cx="952.99" cy="455.18" r="181.96"/>
   <circle class="fil0" cx="524.58" cy="914.2" r="293.64"/>
  </g>
  <path class="fil1" d="M521.17 835.57c6.26,0 11.38,5.08 11.38,11.34 0,6.3 -5.12,11.38 -11.38,11.38 -6.28,0 -11.38,-5.08 -11.38,-11.38 0,-6.26 5.1,-11.34 11.38,-11.34zm76.36 107.69c6.27,0 11.37,5.13 11.37,11.37 0,6.26 -5.1,11.4 -11.37,11.4 -6.27,0 -11.36,-5.14 -11.36,-11.4 0,-6.24 5.09,-11.37 11.36,-11.37zm76.37 -86.34c6.26,0 11.36,5.09 11.36,11.39 0,6.24 -5.1,11.38 -11.36,11.38 -6.28,0 -11.38,-5.14 -11.38,-11.38 0,-6.3 5.1,-11.39 11.38,-11.39zm64.54 -206.35c0,6.29 -5.1,11.37 -11.38,11.37 -6.26,0 -11.38,-5.08 -11.38,-11.37 0,-6.27 5.12,-11.35 11.38,-11.35 6.28,0 11.38,5.08 11.38,11.35zm-92.71 -61.37c0,6.3 -5.1,11.38 -11.38,11.38 -6.28,0 -11.37,-5.08 -11.37,-11.38 0,-6.26 5.09,-11.34 11.37,-11.34 6.28,0 11.38,5.08 11.38,11.34zm-310.19 -74.57c0,-6.25 5.1,-11.34 11.38,-11.34 6.28,0 11.38,5.09 11.38,11.34 0,6.29 -5.1,11.39 -11.38,11.39 -6.28,0 -11.38,-5.1 -11.38,-11.39zm103.77 0c0,-6.25 5.1,-11.34 11.38,-11.34 6.28,0 11.37,5.09 11.37,11.34 0,6.29 -5.09,11.39 -11.37,11.39 -6.28,0 -11.38,-5.1 -11.38,-11.39zm103.77 0c0,-6.25 5.09,-11.34 11.37,-11.34 6.26,0 11.38,5.09 11.38,11.34 0,6.29 -5.12,11.39 -11.38,11.39 -6.28,0 -11.37,-5.1 -11.37,-11.39zm364.46 376.19l0 -127.53c0,-7.55 -6.13,-13.63 -13.66,-13.63 -7.53,0 -13.63,6.08 -13.63,13.63l0 143.26 -56.35 32.52 0 -92.16c0,-7.49 -6.11,-13.63 -13.64,-13.63 -7.53,0 -13.63,6.14 -13.63,13.63l0 107.9 -189.1 109.2 -223.64 -129.11 0 -113.44c0,-7.55 -6.1,-13.61 -13.63,-13.61 -7.54,0 -13.64,6.06 -13.64,13.61l0 97.68 -94.54 -54.59 0 -35.33 278.54 -278.54c4.31,1.68 8.95,2.59 13.83,2.59 21.31,0 38.65,-17.33 38.65,-38.64 0,-21.29 -17.34,-38.65 -38.65,-38.65 -21.31,0 -38.64,17.36 -38.64,38.65 0,6.47 1.6,12.56 4.41,17.9l-258.14 258.15 0 -63.26 176.21 -176.23c3.89,1.34 8.06,2.08 12.4,2.08 21.3,0 38.64,-17.33 38.64,-38.64 0,-21.29 -17.34,-38.65 -38.64,-38.65 -21.31,0 -38.65,17.36 -38.65,38.65 0,6.98 1.87,13.51 5.12,19.15l-155.08 155.08 0 -66.89 71.21 -71.2c4.23,1.59 8.83,2.5 13.63,2.5 21.31,0 38.65,-17.33 38.65,-38.64 0,-21.29 -17.34,-38.65 -38.65,-38.65 -21.31,0 -38.65,17.36 -38.65,38.65 0,6.52 1.65,12.68 4.5,18.08l-50.69 50.71 0 -117.77 243.44 -140.56 0 63.11c0,7.53 6.11,13.61 13.64,13.61l321.81 0c0.42,0 0.81,-0.08 1.23,-0.12l110.79 63.96 0 21.29 -231.36 0c-3.6,0 -7.06,1.42 -9.62,3.93l-63 62.58c-4.51,-1.85 -9.47,-2.89 -14.66,-2.89 -21.3,0 -38.64,17.34 -38.64,38.64 0,21.31 17.34,38.63 38.64,38.63 21.33,0 38.65,-17.32 38.65,-38.63 0,-6.14 -1.48,-11.96 -4.04,-17.12l58.29 -57.88 225.74 0 0 32.74 -144.09 0c-3.61,0 -7.09,1.41 -9.63,3.97l-62.35 62.35c-3.16,-0.83 -6.44,-1.34 -9.86,-1.34 -21.31,0 -38.64,17.34 -38.64,38.65 0,21.34 17.33,38.68 38.64,38.68 21.31,0 38.65,-17.34 38.65,-38.68 0,-7.82 -2.35,-15.1 -6.35,-21.19l55.19 -55.19 138.44 0 0 78.18 -77.13 0c-3.65,0 -7.15,1.48 -9.7,4.05l-71.6 72.34 -273.39 0c-7.53,0 -13.64,6.06 -13.64,13.61l0 68.19 0.02 0.27c-14.6,5.5 -25.03,19.56 -25.03,36.08 0,21.31 17.34,38.65 38.65,38.65 21.31,0 38.64,-17.34 38.64,-38.65 0,-16.52 -10.44,-30.58 -25.02,-36.08l0.01 -0.27 0 -54.55 49.09 0 0 162.53c-14.59,5.53 -25.01,19.58 -25.01,36.09 0,21.31 17.34,38.65 38.65,38.65 21.3,0 38.64,-17.34 38.64,-38.65 0,-16.51 -10.42,-30.56 -25.01,-36.09l0 -162.53 49.1 0 0 76.16c-14.6,5.56 -25.02,19.61 -25.02,36.14 0,21.29 17.33,38.65 38.66,38.65 21.31,0 38.64,-17.36 38.64,-38.65 0,-16.53 -10.42,-30.58 -25.01,-36.14l0 -76.16 112.73 0c3.63,0 7.12,-1.47 9.68,-4.06l71.6 -72.28 71.45 0 0 184.88 -45.45 26.27zm-300.01 -624.59l187.65 108.33 -262.39 0 0 -65.21 74.74 -43.12zm365.9 179.75l-359.08 -207.3c-4.21,-2.47 -9.42,-2.47 -13.63,0l-359.1 207.3c-4.22,2.45 -6.81,6.95 -6.81,11.82l0 155.88c-0.44,2 -0.44,4.03 0,5.97l0 252.79c0,4.88 2.59,9.36 6.81,11.78l359.1 207.34c2.1,1.22 4.46,1.81 6.81,1.81 2.34,0 4.71,-0.59 6.82,-1.81l359.08 -207.34c4.24,-2.42 6.81,-6.9 6.81,-11.78l0 -414.64c0,-4.87 -2.57,-9.37 -6.81,-11.82z"/>
 </g>
</svg>
