<?xml version="1.0" encoding="UTF-8"?>
<!DOCTYPE svg PUBLIC "-//W3C//DTD SVG 1.0//EN" "http://www.w3.org/TR/2001/REC-SVG-20010904/DTD/svg10.dtd">
<!-- Creator: CorelDRAW 2019 (64 Bit) -->
<svg xmlns="http://www.w3.org/2000/svg" xml:space="preserve" width="300px" height="300px" version="1.0" style="shape-rendering:geometricPrecision; text-rendering:geometricPrecision; image-rendering:optimizeQuality; fill-rule:evenodd; clip-rule:evenodd"
viewBox="0 0 300 300"
 xmlns:xlink="http://www.w3.org/1999/xlink"
 xmlns:xodm="http://www.corel.com/coreldraw/odm/2003">
 <defs>
  <style type="text/css">
   <![CDATA[
    .fil0 {fill:#E4F2FF}
    .fil1 {fill:#146EBA;fill-rule:nonzero}
   ]]>
  </style>
 </defs>
 <g id="Camada_x0020_1">
  <metadata id="CorelCorpID_0Corel-Layer"/>
  <g id="_2496239786992">
   <circle class="fil0" cx="110.72" cy="93.16" r="45.42"/>
   <circle class="fil0" cx="215.18" cy="117.43" r="35.77"/>
   <circle class="fil0" cx="130.97" cy="207.66" r="57.72"/>
   <g>
    <path class="fil1" d="M103.57 58.61c-4.34,0 -7.88,3.53 -7.88,7.87l0 153.9c0,4.34 3.54,7.87 7.88,7.87l107.27 0c4.35,0 7.88,-3.53 7.88,-7.87l0 -153.9c0,-4.34 -3.53,-7.87 -7.88,-7.87l-107.27 0zm107.27 174.34l-107.27 0c-6.93,0 -12.57,-5.65 -12.57,-12.57l0 -153.9c0,-6.93 5.64,-12.56 12.57,-12.56l107.27 0c6.93,0 12.57,5.63 12.57,12.56l0 153.9c0,6.92 -5.64,12.57 -12.57,12.57z"/>
    <path class="fil1" d="M111.22 74.78c-1.52,0 -2.75,1.13 -2.75,2.51l0 132.27c0,1.39 1.23,2.51 2.75,2.51l91.95 0c1.54,0 2.78,-1.12 2.78,-2.51l0 -132.27c0,-1.38 -1.24,-2.51 -2.78,-2.51l-91.95 0zm91.95 141.99l-91.95 0c-4.1,0 -7.45,-3.23 -7.45,-7.21l0 -132.27c0,-3.97 3.35,-7.2 7.45,-7.2l91.95 0c4.12,0 7.47,3.23 7.47,7.2l0 132.27c0,3.98 -3.35,7.21 -7.47,7.21z"/>
    <path class="fil1" d="M171.67 66.9l-28.94 0c-1.3,0 -2.35,-1.04 -2.35,-2.33 0,-1.3 1.05,-2.35 2.35,-2.35l28.94 0c1.3,0 2.36,1.05 2.36,2.35 0,1.29 -1.06,2.33 -2.36,2.33z"/>
    <path class="fil1" d="M148.05 126.6c-0.31,0.18 -0.31,29.65 -0.31,29.65l1.46 2.23 -1.15 -2.05 26.09 -14.73 1.15 -2.41 -1.15 2.04 -26.09 -14.73zm-0.1 34.55c-0.86,0 -1.71,-0.22 -2.48,-0.68 -1.51,-0.88 -2.42,-2.46 -2.42,-4.22l0 -29.47c0,-1.76 0.91,-3.34 2.42,-4.22 1.53,-0.9 3.35,-0.91 4.88,-0.04l26.1 14.73c1.56,0.88 2.48,2.47 2.48,4.27 0,1.79 -0.92,3.38 -2.48,4.27l-26.1 14.72c-0.76,0.43 -1.58,0.64 -2.4,0.64z"/>
    <path class="fil1" d="M157.2 105.22c-20.01,0 -36.28,16.28 -36.28,36.3 0,20 16.27,36.29 36.28,36.29 20.01,0 36.29,-16.29 36.29,-36.29 0,-20.02 -16.28,-36.3 -36.29,-36.3zm0 77.28c-22.59,0 -40.98,-18.39 -40.98,-40.98 0,-22.6 18.39,-40.99 40.98,-40.99 22.6,0 40.99,18.39 40.99,40.99 0,22.59 -18.39,40.98 -40.99,40.98z"/>
   </g>
  </g>
 </g>
</svg>
