<?xml version="1.0" encoding="UTF-8"?>
<!DOCTYPE svg PUBLIC "-//W3C//DTD SVG 1.0//EN" "http://www.w3.org/TR/2001/REC-SVG-20010904/DTD/svg10.dtd">
<!-- Creator: CorelDRAW 2019 (64 Bit) -->
<svg xmlns="http://www.w3.org/2000/svg" xml:space="preserve" width="12.6998mm" height="12.6998mm" version="1.0" style="shape-rendering:geometricPrecision; text-rendering:geometricPrecision; image-rendering:optimizeQuality; fill-rule:evenodd; clip-rule:evenodd"
viewBox="0 0 1269.98 1269.98"
 xmlns:xlink="http://www.w3.org/1999/xlink"
 xmlns:xodm="http://www.corel.com/coreldraw/odm/2003">
 <defs>
  <style type="text/css">
   <![CDATA[
    .fil0 {fill:#E4F2FF}
    .fil1 {fill:#146EBA;fill-rule:nonzero}
   ]]>
  </style>
 </defs>
 <g id="Camada_x0020_1">
  <metadata id="CorelCorpID_0Corel-Layer"/>
  <g id="_2015872611056">
   <circle class="fil0" cx="412.54" cy="326.82" r="231.07"/>
   <circle class="fil0" cx="943.96" cy="450.28" r="181.96"/>
   <circle class="fil0" cx="515.55" cy="909.3" r="293.64"/>
  </g>
  <g id="_2015872607696">
   <path class="fil1" d="M435.22 1041.61l54.27 0c7.8,0 14.04,-6.28 14.04,-14.03 0,-7.77 -6.24,-14.04 -14.04,-14.04l-54.27 0c-7.8,0 -14.05,6.27 -14.05,14.04 0,7.75 6.25,14.03 14.05,14.03z"/>
   <path class="fil1" d="M1011.87 643.01c0,21.57 -18.03,39.13 -40.05,39.13l-221.75 0c-2.08,0 -4.16,0.45 -6.07,1.35l-207.7 98.43 29.99 -80.85c1.56,-4.31 1.04,-9.1 -1.56,-12.88 -2.6,-3.81 -6.93,-6.05 -11.62,-6.05l-38.48 0c-22.2,0 -40.05,-17.56 -40.05,-39.13l0 -358.58c0,-21.88 18.2,-40.36 40.05,-40.36l457.19 0c21.67,0 40.05,18.48 40.05,40.36l0 358.58zm-565.38 -273.5l-179.1 0 0 -7.09c0,-28.2 23.06,-51.12 51.15,-51.12l127.95 0 0 58.21zm210.48 604.69l0 51c0,28.19 -22.89,51.13 -51.15,51.13l-287.28 0c-28.09,0 -51.15,-22.94 -51.15,-51.13l0 -51 389.58 0zm314.85 -758.24l-457.19 0c-37.28,0 -67.45,30.05 -68.14,67.27l-127.95 0c-43.7,0 -79.24,35.53 -79.24,79.19l0 591.23c-1.04,1.94 -1.56,4.14 -1.56,6.52 0,2.38 0.52,4.58 1.56,6.54l0 58.49c0,43.69 35.54,79.24 79.24,79.24l287.28 0c43.69,0 79.24,-35.55 79.24,-79.24l0 -225.13c0,-7.76 -6.25,-14.04 -14.05,-14.04 -7.8,0 -14.04,6.28 -14.04,14.04l0 146.07 -389.58 0 0 -548.58 179.1 0 0 245.45c0,37.05 30.51,67.22 68.14,67.22l18.37 0 -35.19 94.28c-1.91,5.34 -0.52,11.41 3.64,15.26 2.77,2.43 6.07,3.69 9.53,3.69 2.08,0 4.17,-0.47 6.07,-1.35l236.14 -111.88 218.63 0c37.45,0 68.14,-30.17 68.14,-67.22l0 -358.58c0,-37.74 -30.69,-68.47 -68.14,-68.47z"/>
   <path class="fil1" d="M859.65 569.97c0,9.1 -7.28,16.54 -16.47,16.54l-98.48 0c-8.84,0 -17.51,-0.73 -25.66,-2.17 -12.31,-2.12 -26.53,-1.84 -36.93,-1.15l-1.21 -110.18c19.24,-8.68 33.11,-27.96 39.18,-55.44 0.87,-0.89 3.99,-2.62 6.41,-4.02 3.99,-2.35 9.54,-5.52 16.13,-10.27 15.95,-11.32 27.22,-34.8 33.46,-69.73 1.04,-5.29 5.55,-9.16 10.92,-9.16 2.95,0 5.9,1.24 7.98,3.44 2.08,2.2 3.12,5.13 2.94,8.18 -0.51,10.77 -1.56,21.33 -3.29,31.42 -4.33,27.04 -29.13,49.04 -29.3,49.25 -3.82,3.31 -5.55,8.36 -4.68,13.18l0 47.35c0,21.03 -12.49,39.81 -31.9,47.9l-8.67 3.56c-7.11,2.96 -10.58,11.2 -7.63,18.36 2.25,5.42 7.45,8.7 13,8.7 1.74,0 3.64,-0.4 5.38,-1.11l8.67 -3.6c29.99,-12.42 49.24,-41.42 49.24,-73.81l0 -35.91 54.44 0c4.33,0 8.49,1.75 11.61,4.89 3.12,3.12 4.86,7.28 4.86,11.69l0 112.09zm-231.46 30.48l-1.56 -135.45 26.18 -0.46 1.56 135.44 -26.18 0.47zm214.99 -187.2l-38.15 0c7.46,-11.11 14.74,-25.36 17.34,-41.33 1.73,-11.12 3.12,-22.73 3.64,-34.47 0.52,-10.68 -3.47,-21.24 -10.75,-28.99 -7.45,-7.8 -17.51,-12.12 -28.26,-12.12 -19.07,0 -35.19,13.56 -38.49,32.3 -4.68,26.29 -12.83,45.13 -22.02,51.76 -5.72,3.93 -10.23,6.53 -14.04,8.8 -8.5,4.84 -17.17,9.85 -19.77,22.32 -2.6,11.51 -7.8,25.34 -18.2,32.89 -4.33,-4.93 -10.58,-8.01 -17.51,-8.01l-0.35 0 -34.67 0.62c-13.18,0.17 -23.58,11.37 -23.41,24.93l1.73 142.31c0,6.36 2.43,12.38 6.77,16.92 4.33,4.74 10.57,7.41 16.99,7.41l0.34 0 34.68 -0.63c6.41,-0.09 12.66,-2.98 17.16,-7.89 2.08,-2.55 3.82,-5.46 4.86,-8.65 9.53,-0.76 22.88,-1.18 33.11,0.59 9.89,1.7 20.12,2.6 30.52,2.6l98.48 0c24.62,0 44.55,-20.06 44.55,-44.64l0 -112.09c0,-11.91 -4.5,-23.15 -13,-31.57 -8.49,-8.45 -19.76,-13.06 -31.55,-13.06z"/>
  </g>
 </g>
</svg>
