<?xml version="1.0" encoding="UTF-8"?>
<!DOCTYPE svg PUBLIC "-//W3C//DTD SVG 1.0//EN" "http://www.w3.org/TR/2001/REC-SVG-20010904/DTD/svg10.dtd">
<!-- Creator: CorelDRAW 2019 (64 Bit) -->
<svg xmlns="http://www.w3.org/2000/svg" xml:space="preserve" width="300px" height="300px" version="1.0" style="shape-rendering:geometricPrecision; text-rendering:geometricPrecision; image-rendering:optimizeQuality; fill-rule:evenodd; clip-rule:evenodd"
viewBox="0 0 300 300"
 xmlns:xlink="http://www.w3.org/1999/xlink"
 xmlns:xodm="http://www.corel.com/coreldraw/odm/2003">
 <defs>
  <style type="text/css">
   <![CDATA[
    .fil0 {fill:#E4F2FF}
    .fil1 {fill:#146EBA;fill-rule:nonzero}
   ]]>
  </style>
 </defs>
 <g id="Camada_x0020_1">
  <metadata id="CorelCorpID_0Corel-Layer"/>
  <g id="_2496100641648">
   <g>
    <circle class="fil0" cx="120.35" cy="87.22" r="45.42"/>
    <circle class="fil0" cx="224.82" cy="111.49" r="35.77"/>
    <circle class="fil0" cx="140.6" cy="201.72" r="57.72"/>
   </g>
   <path class="fil1" d="M93.34 126.56c-0.34,0 -0.68,-0.07 -1.01,-0.22 -1.17,-0.56 -1.67,-1.96 -1.11,-3.12 6.66,-14.09 18.12,-25.42 32.28,-31.94 1.17,-0.54 2.56,-0.03 3.11,1.14 0.54,1.18 0.02,2.58 -1.15,3.11 -13.15,6.07 -23.81,16.61 -30,29.68 -0.41,0.86 -1.25,1.35 -2.12,1.35z"/>
   <path class="fil1" d="M151.24 217.98c-36.6,0 -66.38,-29.78 -66.38,-66.38 0,-4 0.26,-7.23 0.87,-10.78 0.22,-1.29 1.42,-2.14 2.71,-1.92 1.28,0.22 2.13,1.43 1.92,2.71 -0.56,3.28 -0.81,6.27 -0.81,9.99 0,34.01 27.67,61.69 61.69,61.69 3.36,0 6.73,-0.27 10.01,-0.81 1.29,-0.21 2.49,0.66 2.69,1.94 0.21,1.27 -0.65,2.49 -1.93,2.69 -3.54,0.57 -7.16,0.87 -10.77,0.87z"/>
   <path class="fil1" d="M178.62 211.85c-0.88,0 -1.72,-0.5 -2.12,-1.34 -0.55,-1.18 -0.06,-2.57 1.12,-3.13 13.08,-6.2 23.62,-16.85 29.68,-30 0.54,-1.18 1.93,-1.69 3.11,-1.15 1.17,0.54 1.69,1.93 1.15,3.11 -6.52,14.15 -17.86,25.61 -31.94,32.28 -0.32,0.15 -0.66,0.23 -1,0.23z"/>
   <path class="fil1" d="M214.54 163.69c-1.64,-0.21 -2.52,-1.41 -2.32,-2.69 0.47,-3.09 0.71,-6.26 0.71,-9.4 0,-34.01 -27.68,-61.69 -61.69,-61.69 -3.15,0 -6.31,0.24 -9.4,0.72 -1.27,0.2 -2.47,-0.68 -2.67,-1.98 -0.2,-1.27 0.69,-2.47 1.96,-2.67 3.33,-0.5 6.72,-0.76 10.11,-0.76 36.6,0 66.37,29.78 66.37,66.38 0,3.38 -0.25,6.78 -0.76,10.1 -0.17,1.17 -1.17,1.99 -2.31,1.99z"/>
   <path class="fil1" d="M151.24 185.9c-18.91,0 -34.3,-15.39 -34.3,-34.3 0,-4.09 0.71,-8.07 2.11,-11.87 0.45,-1.22 1.8,-1.83 3.01,-1.39 1.21,0.45 1.84,1.8 1.39,3.02 -1.21,3.26 -1.82,6.71 -1.82,10.24 0,16.33 13.28,29.61 29.61,29.61 16.32,0 29.61,-13.28 29.61,-29.61 0,-16.33 -13.29,-29.61 -29.61,-29.61 -3.26,0 -6.47,0.53 -9.54,1.57 -1.24,0.42 -2.56,-0.24 -2.98,-1.47 -0.42,-1.22 0.24,-2.56 1.47,-2.98 3.55,-1.2 7.27,-1.81 11.05,-1.81 18.91,0 34.3,15.38 34.3,34.3 0,18.91 -15.39,34.3 -34.3,34.3z"/>
   <path class="fil1" d="M76.94 61.2c-3.99,0 -7.97,1.51 -11,4.55 -6.06,6.06 -6.06,15.93 0,21.99 6.07,6.06 15.93,6.07 21.99,0 6.06,-6.06 6.06,-15.93 0,-21.99 -3.03,-3.04 -7.01,-4.55 -10.99,-4.55zm0 35.78c-5.18,0 -10.37,-1.98 -14.32,-5.92 -7.88,-7.89 -7.88,-20.73 0,-28.63 7.9,-7.89 20.74,-7.89 28.63,0 7.89,7.9 7.89,20.74 0,28.63 -3.95,3.94 -9.12,5.92 -14.31,5.92z"/>
   <path class="fil1" d="M104.51 146.34c-0.63,0 -1.25,-0.06 -1.88,-0.16l-24.39 -4.32c-3.94,-0.71 -7.07,-3.67 -7.96,-7.56l-8.3 -44.47c-0.24,-1.27 0.6,-2.5 1.87,-2.74 1.28,-0.21 2.5,0.61 2.74,1.88l8.28 44.37c0.45,1.96 2.1,3.53 4.18,3.9l24.39 4.31c1.77,0.33 3.57,-0.17 4.94,-1.31 1.37,-1.15 2.16,-2.83 2.16,-4.63 0,-2.78 -1.89,-5.2 -4.59,-5.87l-18.6 -4.58c-0.88,-0.22 -1.56,-0.93 -1.74,-1.82l-3.36 -16.8c-0.2,-1.06 0.33,-2.13 1.31,-2.58 9.03,-4.25 16.35,-11.56 20.59,-20.59 0.46,-0.98 1.53,-1.53 2.59,-1.31l16.79 3.36c0.9,0.18 1.6,0.86 1.82,1.74l4.59 18.59c0.66,2.7 3.08,4.6 5.86,4.6 1.79,0 3.48,-0.79 4.63,-2.16 1.15,-1.38 1.63,-3.18 1.32,-4.94l-4.32 -24.39c-0.36,-2.08 -1.94,-3.73 -4,-4.2l-44.27 -8.26c-1.27,-0.24 -2.11,-1.47 -1.87,-2.74 0.24,-1.27 1.45,-2.1 2.74,-1.87l44.36 8.28c3.99,0.91 6.96,4.04 7.66,7.98l4.32 24.39c0.55,3.12 -0.3,6.32 -2.34,8.76 -2.05,2.44 -5.05,3.84 -8.23,3.84 -4.95,0 -9.23,-3.36 -10.42,-8.17l-4.23 -17.15 -13.56 -2.71c-4.53,8.72 -11.67,15.86 -20.39,20.38l2.72 13.57 17.15 4.23c4.8,1.18 8.16,5.48 8.16,10.42 0,3.18 -1.4,6.18 -3.84,8.22 -1.95,1.64 -4.38,2.51 -6.88,2.51z"/>
   <path class="fil1" d="M226.09 210.35c-4.15,0 -8.06,1.62 -10.99,4.56 -6.06,6.06 -6.06,15.91 0,21.98 6.06,6.07 15.92,6.06 21.99,0 6.06,-6.07 6.06,-15.92 0,-21.98 -2.94,-2.94 -6.84,-4.56 -11,-4.56zm0 35.78c-5.18,0 -10.36,-1.97 -14.31,-5.92 -7.89,-7.89 -7.89,-20.74 0,-28.62 3.82,-3.83 8.91,-5.93 14.31,-5.93 5.41,0 10.49,2.1 14.31,5.93 7.89,7.88 7.89,20.73 0,28.62 -3.95,3.95 -9.13,5.92 -14.31,5.92z"/>
   <path class="fil1" d="M213.44 240.9c-0.43,-0.05 -44.8,-8.32 -44.8,-8.32 -3.99,-0.92 -6.96,-4.04 -7.66,-7.98l-4.32 -24.38c-0.55,-3.14 0.3,-6.34 2.35,-8.78 2.04,-2.43 5.04,-3.83 8.22,-3.83 4.95,0 9.23,3.35 10.42,8.16l4.23 17.14 13.57 2.73c4.51,-8.72 11.66,-15.87 20.38,-20.39l-2.72 -13.57 -17.14 -4.23c-4.81,-1.18 -8.16,-5.47 -8.16,-10.41 0,-3.18 1.39,-6.18 3.83,-8.23 2.44,-2.04 5.63,-2.9 8.77,-2.34l24.39 4.32c3.93,0.69 7.06,3.67 7.95,7.56l8.3 44.46c0.24,1.28 -0.6,2.5 -1.87,2.74 -1.29,0.22 -2.5,-0.61 -2.74,-1.87l-8.28 -44.37c-0.45,-1.97 -2.1,-3.54 -4.18,-3.9l-24.39 -4.32c-1.77,-0.31 -3.57,0.17 -4.93,1.32 -1.38,1.15 -2.17,2.83 -2.17,4.63 0,2.78 1.89,5.19 4.6,5.87l18.59 4.58c0.89,0.22 1.57,0.92 1.74,1.81l3.36 16.8c0.21,1.06 -0.33,2.13 -1.31,2.58 -9.03,4.25 -16.35,11.57 -20.59,20.61 -0.47,0.97 -1.52,1.52 -2.58,1.29l-16.81 -3.35c-0.89,-0.18 -1.59,-0.87 -1.81,-1.75l-4.58 -18.59c-0.67,-2.7 -3.08,-4.6 -5.87,-4.6 -1.79,0 -3.48,0.8 -4.63,2.16 -1.15,1.38 -1.63,3.18 -1.32,4.94l4.32 24.4c0.37,2.07 1.94,3.72 4,4.2l44.27 8.26c1.27,0.24 2.11,1.45 1.88,2.74 -0.21,1.12 -1.21,1.91 -2.31,1.91z"/>
   <path class="fil1" d="M114.04 130.02l17.01 17.01 8.15 -7.97 7.98 -8.15 -17.01 -17.01 -16.13 16.12zm17 22.66c-0.6,0 -1.2,-0.22 -1.66,-0.69l-20.31 -20.31c-0.92,-0.92 -0.92,-2.4 0,-3.32l9.69 -9.69 9.75 -9.74c0.92,-0.92 2.4,-0.92 3.32,0l20.31 20.31c0.9,0.9 0.91,2.37 0.02,3.29l-9.65 9.85 -9.83 9.63c-0.46,0.45 -1.05,0.67 -1.64,0.67z"/>
   <path class="fil1" d="M137.14 139.4c-0.6,0 -1.2,-0.24 -1.66,-0.7l-16.72 -16.72c-0.91,-0.92 -0.91,-2.39 0,-3.31 0.92,-0.92 2.41,-0.92 3.32,0l16.72 16.72c0.92,0.91 0.92,2.4 0,3.31 -0.46,0.46 -1.06,0.7 -1.66,0.7z"/>
  </g>
 </g>
</svg>
