<?xml version="1.0" encoding="UTF-8"?>
<!DOCTYPE svg PUBLIC "-//W3C//DTD SVG 1.0//EN" "http://www.w3.org/TR/2001/REC-SVG-20010904/DTD/svg10.dtd">
<!-- Creator: CorelDRAW 2019 (64 Bit) -->
<svg xmlns="http://www.w3.org/2000/svg" xml:space="preserve" width="160.02mm" height="76.1998mm" version="1.0" style="shape-rendering:geometricPrecision; text-rendering:geometricPrecision; image-rendering:optimizeQuality; fill-rule:evenodd; clip-rule:evenodd"
viewBox="0 0 16001.98 7619.98"
 xmlns:xlink="http://www.w3.org/1999/xlink"
 xmlns:xodm="http://www.corel.com/coreldraw/odm/2003">
 <defs>
  <style type="text/css">
   <![CDATA[
    .fil1 {fill:#146EBA}
    .fil0 {fill:#353334}
   ]]>
  </style>
 </defs>
 <g id="Camada_x0020_1">
  <metadata id="CorelCorpID_0Corel-Layer"/>
  <g id="_2158557139488">
   <g>
    <path class="fil0" d="M2099.86 5251.57c-40.15,0 -57.35,-33.95 -74.55,-65.77 -11.47,-27.59 -28.68,-55.17 -51.62,-55.17 -28.67,0 -40.14,27.58 -51.61,55.17 -17.21,31.82 -34.41,65.77 -74.55,65.77 -34.41,0 -51.62,-33.95 -68.82,-65.77 -17.21,-27.59 -28.68,-55.17 -57.35,-55.17 -22.94,0 -34.41,27.58 -51.61,55.17 -17.21,31.82 -34.41,65.77 -68.82,65.77 -40.14,0 -57.35,-33.95 -74.55,-65.77 -11.47,-27.59 -22.94,-55.17 -51.62,-55.17 -22.93,0 -40.14,27.58 -51.61,55.17 -17.2,31.82 -34.41,65.77 -74.55,65.77 -34.41,0 -51.61,-33.95 -68.82,-65.77 -11.47,-27.59 -28.67,-55.17 -51.61,-55.17l0 -21.22c34.41,0 51.61,36.07 68.82,67.9 17.2,27.58 28.67,55.17 51.61,55.17 28.67,0 40.14,-27.59 57.35,-55.17 17.2,-31.83 34.41,-67.9 68.81,-67.9 40.15,0 57.35,36.07 68.82,67.9 17.21,27.58 28.68,55.17 57.35,55.17 22.94,0 40.14,-27.59 51.61,-55.17 17.21,-31.83 34.41,-67.9 68.82,-67.9 40.14,0 57.35,36.07 74.55,67.9 11.47,27.58 28.68,55.17 51.62,55.17 28.67,0 40.14,-27.59 51.61,-55.17 17.2,-31.83 34.41,-67.9 74.55,-67.9 34.41,0 51.62,36.07 68.82,67.9 17.2,27.58 28.67,55.17 57.35,55.17l0 19.09z"/>
    <path class="fil0" d="M2099.86 5251.57c-40.15,0 -57.35,-33.95 -74.55,-65.77 -11.47,-27.59 -28.68,-55.17 -51.62,-55.17 -28.67,0 -40.14,27.58 -51.61,55.17 -17.21,31.82 -34.41,65.77 -74.55,65.77 -34.41,0 -51.62,-33.95 -68.82,-65.77 -17.21,-27.59 -28.68,-55.17 -57.35,-55.17 -22.94,0 -34.41,27.58 -51.61,55.17 -17.21,31.82 -34.41,65.77 -68.82,65.77 -40.14,0 -57.35,-33.95 -74.55,-65.77 -11.47,-27.59 -22.94,-55.17 -51.62,-55.17 -22.93,0 -40.14,27.58 -51.61,55.17 -17.2,31.82 -34.41,65.77 -74.55,65.77 -34.41,0 -51.61,-33.95 -68.82,-65.77 -11.47,-27.59 -28.67,-55.17 -51.61,-55.17l0 -21.22c34.41,0 51.61,36.07 68.82,67.9 17.2,27.58 28.67,55.17 51.61,55.17 28.67,0 40.14,-27.59 57.35,-55.17 17.2,-31.83 34.41,-67.9 68.81,-67.9 40.15,0 57.35,36.07 68.82,67.9 17.21,27.58 28.68,55.17 57.35,55.17 22.94,0 40.14,-27.59 51.61,-55.17 17.21,-31.83 34.41,-67.9 68.82,-67.9 40.14,0 57.35,36.07 74.55,67.9 11.47,27.58 28.68,55.17 51.62,55.17 28.67,0 40.14,-27.59 51.61,-55.17 17.2,-31.83 34.41,-67.9 74.55,-67.9 34.41,0 51.62,36.07 68.82,67.9 17.2,27.58 28.67,55.17 57.35,55.17l0 19.09z"/>
   </g>
   <g>
    <path class="fil0" d="M12379.29 2740.08l-68.82 0 0 -67.9 -34.41 0 0 67.9 -68.81 0 0 36.07 68.81 0 0 67.9 34.41 0 0 -67.9 68.82 0 0 -36.07z"/>
    <path class="fil0" d="M12379.29 2740.08l-68.82 0 0 -67.9 -34.41 0 0 67.9 -68.81 0 0 36.07 68.81 0 0 67.9 34.41 0 0 -67.9 68.82 0 0 -36.07z"/>
   </g>
   <g>
    <path class="fil0" d="M1068.33 6259.04l-68.82 0 0 -67.9 -34.41 0 0 67.9 -68.81 0 0 36.07 68.81 0 0 67.9 34.41 0 0 -67.9 68.82 0 0 -36.07z"/>
    <path class="fil0" d="M1068.33 6259.04l-68.82 0 0 -67.9 -34.41 0 0 67.9 -68.81 0 0 36.07 68.81 0 0 67.9 34.41 0 0 -67.9 68.82 0 0 -36.07z"/>
   </g>
   <g>
    <path class="fil0" d="M11458.57 7130.45c-34.41,0 -51.61,-33.95 -68.81,-65.77 -11.47,-27.59 -28.68,-55.17 -51.62,-55.17 -28.67,0 -40.14,27.58 -57.35,55.17 -11.47,31.82 -34.4,65.77 -68.81,65.77 -34.41,0 -57.35,-33.95 -68.82,-65.77 -17.21,-27.59 -28.68,-55.17 -57.35,-55.17 -22.94,0 -34.41,27.58 -51.61,55.17 -17.21,31.82 -34.41,65.77 -68.82,65.77 -40.14,0 -57.35,-33.95 -74.55,-65.77 -11.47,-27.59 -28.68,-55.17 -51.62,-55.17 -22.94,0 -40.14,27.58 -51.61,55.17 -17.2,31.82 -34.41,65.77 -74.55,65.77 -34.41,0 -51.61,-33.95 -68.82,-65.77 -17.2,-27.59 -28.67,-55.17 -51.61,-55.17l0 -21.22c34.41,0 51.61,36.07 68.82,67.9 17.2,27.58 28.67,55.17 51.61,55.17 28.67,0 40.14,-27.59 57.35,-55.17 11.47,-31.83 34.41,-67.9 68.81,-67.9 34.41,0 57.35,36.07 68.82,67.9 17.21,27.58 28.68,55.17 57.35,55.17 22.94,0 34.41,-27.59 51.61,-55.17 17.21,-31.83 34.41,-67.9 68.82,-67.9 40.14,0 57.35,36.07 74.55,67.9 11.47,27.58 28.68,55.17 51.62,55.17 22.94,0 40.14,-27.59 51.61,-55.17 17.2,-31.83 34.41,-67.9 74.55,-67.9 34.41,0 51.62,36.07 68.82,67.9 17.2,27.58 28.67,55.17 51.61,55.17l0 19.09z"/>
    <path class="fil0" d="M11458.57 7130.45c-34.41,0 -51.61,-33.95 -68.81,-65.77 -11.47,-27.59 -28.68,-55.17 -51.62,-55.17 -28.67,0 -40.14,27.58 -57.35,55.17 -11.47,31.82 -34.4,65.77 -68.81,65.77 -34.41,0 -57.35,-33.95 -68.82,-65.77 -17.21,-27.59 -28.68,-55.17 -57.35,-55.17 -22.94,0 -34.41,27.58 -51.61,55.17 -17.21,31.82 -34.41,65.77 -68.82,65.77 -40.14,0 -57.35,-33.95 -74.55,-65.77 -11.47,-27.59 -28.68,-55.17 -51.62,-55.17 -22.94,0 -40.14,27.58 -51.61,55.17 -17.2,31.82 -34.41,65.77 -74.55,65.77 -34.41,0 -51.61,-33.95 -68.82,-65.77 -17.2,-27.59 -28.67,-55.17 -51.61,-55.17l0 -21.22c34.41,0 51.61,36.07 68.82,67.9 17.2,27.58 28.67,55.17 51.61,55.17 28.67,0 40.14,-27.59 57.35,-55.17 11.47,-31.83 34.41,-67.9 68.81,-67.9 34.41,0 57.35,36.07 68.82,67.9 17.21,27.58 28.68,55.17 57.35,55.17 22.94,0 34.41,-27.59 51.61,-55.17 17.21,-31.83 34.41,-67.9 68.82,-67.9 40.14,0 57.35,36.07 74.55,67.9 11.47,27.58 28.68,55.17 51.62,55.17 22.94,0 40.14,-27.59 51.61,-55.17 17.2,-31.83 34.41,-67.9 74.55,-67.9 34.41,0 51.62,36.07 68.82,67.9 17.2,27.58 28.67,55.17 51.61,55.17l0 19.09z"/>
   </g>
   <g>
    <path class="fil1" d="M3014.39 7336.57c-40.15,0 -57.35,-33.95 -68.82,-65.78 -17.21,-27.58 -28.68,-55.17 -57.35,-55.17 -22.94,0 -40.14,27.59 -51.61,55.17 -17.21,31.83 -34.41,65.78 -68.82,65.78 -40.14,0 -57.35,-33.95 -74.55,-65.78 -11.47,-27.58 -28.68,-55.17 -51.62,-55.17 -28.67,0 -40.14,27.59 -51.61,55.17 -17.2,31.83 -34.41,65.78 -74.55,65.78 -34.41,0 -51.61,-33.95 -68.82,-65.78 -17.2,-27.58 -28.67,-55.17 -51.61,-55.17 -28.68,0 -40.15,27.59 -57.35,55.17 -17.21,31.83 -34.41,65.78 -68.82,65.78 -40.14,0 -57.35,-33.95 -68.82,-65.78 -17.2,-27.58 -28.67,-55.17 -57.34,-55.17l0 -21.21c40.14,0 57.34,36.07 74.55,67.9 11.47,27.58 22.94,55.16 51.61,55.16 22.94,0 40.15,-27.58 51.61,-55.16 17.21,-31.83 34.41,-67.9 74.56,-67.9 34.41,0 51.61,36.07 68.82,67.9 11.46,27.58 28.67,55.16 51.61,55.16 28.67,0 40.14,-27.58 57.35,-55.16 11.47,-31.83 28.67,-67.9 68.81,-67.9 34.41,0 51.62,36.07 68.82,67.9 17.21,27.58 28.68,55.16 57.35,55.16 22.94,0 34.41,-27.58 51.61,-55.16 17.21,-31.83 34.41,-67.9 68.82,-67.9 40.14,0 57.35,36.07 74.55,67.9 11.47,27.58 28.68,55.16 51.62,55.16l0 19.1z"/>
    <path class="fil1" d="M3014.39 7336.57c-40.15,0 -57.35,-33.95 -68.82,-65.78 -17.21,-27.58 -28.68,-55.17 -57.35,-55.17 -22.94,0 -40.14,27.59 -51.61,55.17 -17.21,31.83 -34.41,65.78 -68.82,65.78 -40.14,0 -57.35,-33.95 -74.55,-65.78 -11.47,-27.58 -28.68,-55.17 -51.62,-55.17 -28.67,0 -40.14,27.59 -51.61,55.17 -17.2,31.83 -34.41,65.78 -74.55,65.78 -34.41,0 -51.61,-33.95 -68.82,-65.78 -17.2,-27.58 -28.67,-55.17 -51.61,-55.17 -28.68,0 -40.15,27.59 -57.35,55.17 -17.21,31.83 -34.41,65.78 -68.82,65.78 -40.14,0 -57.35,-33.95 -68.82,-65.78 -17.2,-27.58 -28.67,-55.17 -57.34,-55.17l0 -21.21c40.14,0 57.34,36.07 74.55,67.9 11.47,27.58 22.94,55.16 51.61,55.16 22.94,0 40.15,-27.58 51.61,-55.16 17.21,-31.83 34.41,-67.9 74.56,-67.9 34.41,0 51.61,36.07 68.82,67.9 11.46,27.58 28.67,55.16 51.61,55.16 28.67,0 40.14,-27.58 57.35,-55.16 11.47,-31.83 28.67,-67.9 68.81,-67.9 34.41,0 51.62,36.07 68.82,67.9 17.21,27.58 28.68,55.16 57.35,55.16 22.94,0 34.41,-27.58 51.61,-55.16 17.21,-31.83 34.41,-67.9 68.82,-67.9 40.14,0 57.35,36.07 74.55,67.9 11.47,27.58 28.68,55.16 51.62,55.16l0 19.1z"/>
   </g>
   <g>
    <path class="fil1" d="M3577.31 5826.48l-17.2 -25.46 74.55 -61.54 -74.55 -59.41 17.2 -25.46 108.96 84.87 -108.96 87zm223.66 0l-17.2 -25.46 74.55 -61.54 -74.55 -59.41 17.2 -25.46 108.96 84.87 -108.96 87zm223.66 0l-17.21 -25.46 74.56 -61.54 -74.56 -59.41 17.21 -25.46 108.96 84.87 -108.96 87z"/>
    <path class="fil1" d="M3577.31 5826.48l-17.2 -25.46 74.55 -61.54 -74.55 -59.41 17.2 -25.46 108.96 84.87 -108.96 87zm223.66 0l-17.2 -25.46 74.55 -61.54 -74.55 -59.41 17.2 -25.46 108.96 84.87 -108.96 87zm223.66 0l-17.21 -25.46 74.56 -61.54 -74.56 -59.41 17.21 -25.46 108.96 84.87 -108.96 87z"/>
   </g>
   <g>
    <path class="fil1" d="M13458.08 6203.69l-86.02 -108.22 22.94 -19.1 63.08 76.39 57.35 -76.39 28.68 19.1 -86.03 108.22zm0 224.91l-86.02 -108.21 22.94 -21.22 63.08 78.51 57.35 -78.51 28.68 21.22 -86.03 108.21zm0 222.8l-86.02 -108.21 22.94 -19.1 63.08 76.39 57.35 -76.39 28.68 19.1 -86.03 108.21z"/>
    <path class="fil1" d="M13458.08 6203.69l-86.02 -108.22 22.94 -19.1 63.08 76.39 57.35 -76.39 28.68 19.1 -86.03 108.22zm0 224.91l-86.02 -108.21 22.94 -21.22 63.08 78.51 57.35 -78.51 28.68 21.22 -86.03 108.21zm0 222.8l-86.02 -108.21 22.94 -19.1 63.08 76.39 57.35 -76.39 28.68 19.1 -86.03 108.21z"/>
   </g>
   <g>
    <path class="fil0" d="M5039.3 3804.09l-51.61 193.09 -143.37 -144.29 194.98 -48.8z"/>
    <path class="fil0" d="M5039.3 3804.09l-51.61 193.09 -143.37 -144.29 194.98 -48.8z"/>
   </g>
   <g>
    <path class="fil1" d="M13867.99 3856.99l-45.88 193.09 -143.37 -144.29 189.25 -48.8z"/>
    <path class="fil1" d="M13867.99 3856.99l-45.88 193.09 -143.37 -144.29 189.25 -48.8z"/>
   </g>
   <g>
    <path class="fil1" d="M2639.93 3715.42c0,0 0,0 0,0 22.94,33.95 74.55,42.44 108.96,16.98 34.41,-25.46 40.15,-74.27 11.47,-108.22 0,0 0,0 0,0l28.68 -16.97c0,0 0,0 0,0 34.4,46.68 22.93,112.46 -22.94,148.53 -51.62,33.95 -114.7,25.46 -149.11,-21.22 0,0 0,-2.12 0,-2.12l22.94 -16.98z"/>
    <path class="fil1" d="M2639.93 3715.42c0,0 0,0 0,0 22.94,33.95 74.55,42.44 108.96,16.98 34.41,-25.46 40.15,-74.27 11.47,-108.22 0,0 0,0 0,0l28.68 -16.97c0,0 0,0 0,0 34.4,46.68 22.93,112.46 -22.94,148.53 -51.62,33.95 -114.7,25.46 -149.11,-21.22 0,0 0,-2.12 0,-2.12l22.94 -16.98z"/>
   </g>
   <g>
    <path class="fil1" d="M11539.59 4538c0,0 0,0 0,0 28.67,33.95 74.55,42.44 108.96,16.98 34.41,-25.46 40.14,-74.27 17.2,-108.22 0,0 0,0 0,0l22.94 -16.97c0,0 0,0 0,0 34.41,46.68 22.94,112.46 -22.94,148.53 -45.87,33.95 -114.69,25.46 -149.1,-21.22 0,-2.12 0,-2.12 0,-2.12l22.94 -16.98z"/>
    <path class="fil1" d="M11539.59 4538c0,0 0,0 0,0 28.67,33.95 74.55,42.44 108.96,16.98 34.41,-25.46 40.14,-74.27 17.2,-108.22 0,0 0,0 0,0l22.94 -16.97c0,0 0,0 0,0 34.41,46.68 22.94,112.46 -22.94,148.53 -45.87,33.95 -114.69,25.46 -149.1,-21.22 0,-2.12 0,-2.12 0,-2.12l22.94 -16.98z"/>
   </g>
   <path class="fil1" d="M15434.25 4674.79c22.94,-46.68 51.61,-91.24 80.28,-135.8 34.41,-46.68 74.56,-93.36 114.7,-133.68 45.88,-42.44 91.76,-80.63 137.63,-112.46 45.88,-29.71 91.76,-55.17 137.64,-78.51l-470.25 460.45zm567.74 1347.39l0 -59.41 -45.88 44.56c17.21,6.36 28.68,10.61 45.88,14.85zm0 -241.89l0 -55.17 -206.45 201.58c11.47,8.48 22.94,14.85 34.41,21.22l172.04 -167.63zm0 -233.41l0 -59.41 -344.09 337.38c11.47,8.48 22.94,16.97 34.41,25.46l309.68 -303.43zm0 -239.77l0 -55.17 -458.78 447.72c5.73,10.6 17.2,21.21 22.94,31.82l435.84 -424.37zm0 -235.53l0 -59.41 -556.27 543.2c11.47,12.73 17.2,23.34 22.93,36.07l533.34 -519.86zm0 -237.65l0 -59.41 -625.09 611.1c5.73,14.85 11.47,27.58 17.2,42.43l607.89 -594.12zm0 -237.65l0 -59.41 -665.24 649.29c5.74,16.98 5.74,33.95 11.47,50.93l653.77 -640.81zm0 -237.65l0 -59.41 -653.77 638.68c0,21.22 -5.73,44.56 -5.73,65.78l659.5 -645.05z"/>
  </g>
 </g>
</svg>
